HIERARCHY
ROOT root
{
	OFFSET	0	13.1	24.9
	CHANNELS 6  Xposition Yposition Zposition Xrotation Yrotation Zrotation
	JOINT spine_1
	{
		OFFSET	0	9.99999	0
		CHANNELS 3  Xrotation Yrotation Zrotation
		JOINT spine_2
		{
			OFFSET	0	112	-10
			CHANNELS 3  Xrotation Yrotation Zrotation
			JOINT spine_3
			{
				OFFSET	0	206.5	19.3
				CHANNELS 3  Xrotation Yrotation Zrotation
				JOINT spine_4
				{
					OFFSET	0	110.4	14.6
					CHANNELS 3  Xrotation Yrotation Zrotation
					JOINT neck_1
					{
						OFFSET	0	71.8	-50.3
						CHANNELS 3  Xrotation Yrotation Zrotation
						JOINT neck_2
						{
							OFFSET	0	86.2	-25.8
							CHANNELS 3  Xrotation Yrotation Zrotation
							JOINT head_ee
							{
								OFFSET	0	179.8	-8.7
								CHANNELS 3  Xrotation Yrotation Zrotation
								End Site
								{
									OFFSET	1	0	0
								}
							}
						}
					}
					JOINT left_clavicle
					{
						OFFSET	-43.2	22.4	-70.8
						CHANNELS 3  Xrotation Yrotation Zrotation
						JOINT left_shoulder
						{
							OFFSET	-93.9	-5.79999	48.7
							CHANNELS 3  Xrotation Yrotation Zrotation
							JOINT left_elbow
							{
								OFFSET	-291.4	-30.8	15.2
								CHANNELS 3  Xrotation Yrotation Zrotation
								JOINT left_lowarm_twist
								{
									OFFSET	-110.7	-3.89999	13.6
									CHANNELS 3  Xrotation Yrotation Zrotation
									JOINT left_hand
									{
										OFFSET	-110.7	-3.89999	13.6
										CHANNELS 3  Xrotation Yrotation Zrotation
										JOINT left_ee
										{
											OFFSET	-80.8	-5.10001	12.1
											CHANNELS 3  Xrotation Yrotation Zrotation
											End Site
											{
												OFFSET	1	0	0
											}
										}
									}
								}
							}
						}
					}
					JOINT right_clavicle
					{
						OFFSET	43.2	22.4	-70.8
						CHANNELS 3  Xrotation Yrotation Zrotation
						JOINT right_shoulder
						{
							OFFSET	93.9	-5.79999	48.7
							CHANNELS 3  Xrotation Yrotation Zrotation
							JOINT right_elbow
							{
								OFFSET	291.4	-30.8	15.2
								CHANNELS 3  Xrotation Yrotation Zrotation
								JOINT right_lowarm_twist
								{
									OFFSET	110.7	-3.89999	13.6
									CHANNELS 3  Xrotation Yrotation Zrotation
									JOINT right_hand
									{
										OFFSET	110.7	-3.89999	13.6
										CHANNELS 3  Xrotation Yrotation Zrotation
										JOINT right_ee
										{
											OFFSET	80.8	-5.10001	12.1
											CHANNELS 3  Xrotation Yrotation Zrotation
											End Site
											{
												OFFSET	1	0	0
											}
										}
									}
								}
							}
						}
					}
				}
			}
		}
	}
	JOINT left_hip
	{
		OFFSET	-82.8	-127.5	0.300001
		CHANNELS 3  Xrotation Yrotation Zrotation
		JOINT left_knee
		{
			OFFSET	-28.2	-396.7	2.2
			CHANNELS 3  Xrotation Yrotation Zrotation
			JOINT left_ankle
			{
				OFFSET	-11.7	-411.3	35.4
				CHANNELS 3  Xrotation Yrotation Zrotation
				JOINT left_toes
				{
					OFFSET	0	-60	-88.6
					CHANNELS 3  Xrotation Yrotation Zrotation
					JOINT left_foot_ee
					{
						OFFSET	-22.5	-16.5	-42.2
						CHANNELS 3  Xrotation Yrotation Zrotation
						End Site
						{
							OFFSET	1	0	0
						}
					}
				}
			}
		}
	}
	JOINT right_hip
	{
		OFFSET	82.8	-127.5	0.300001
		CHANNELS 3  Xrotation Yrotation Zrotation
		JOINT right_knee
		{
			OFFSET	28.2	-396.7	2.2
			CHANNELS 3  Xrotation Yrotation Zrotation
			JOINT right_ankle
			{
				OFFSET	11.7	-411.3	35.4
				CHANNELS 3  Xrotation Yrotation Zrotation
				JOINT right_toes
				{
					OFFSET	0	-60	-88.6
					CHANNELS 3  Xrotation Yrotation Zrotation
					JOINT right_foot_ee
					{
						OFFSET	22.5	-16.5	-42.2
						CHANNELS 3  Xrotation Yrotation Zrotation
						End Site
						{
							OFFSET	1	0	0
						}
					}
				}
			}
		}
	}
}
MOTION
Frames: 5
Frame Time: 0.02
3714.14 764.28 -623.401 -18.6639 43.7971 9.13827 6.02558 0.386128 0.756538 6.02584 0.337207 0.779573 6.0301 0.252448 0.810993 6.02938 0.377358 0.76095 -5.58331 12.6203 5.02724 -5.47932 19.5836 7.36658 -0.0 0.0 -0.0 5.32977 11.9588 10.4066 -41.0994 -40.1494 50.3843 0.596951 -16.4737 0.0864147 61.8945 -1.94546 -7.27989 0.575457 0.989278 4.25292 -0.0 0.0 -0.0 10.6372 3.81335 -21.1538 -36.1402 22.8251 -54.3401 0.576102 15.9281 -0.0805977 33.6576 0.0611018 4.2379 0.740842 6.06688 -2.42588 0.0 0.0 0.0 18.0706 16.5276 0.5028 -7.99224 0.245624 1.20098 37.6895 -27.8849 -5.54644 40.1639 -0.0 -0.0 -0.0 0.0 -0.0 29.7662 -13.4712 14.2032 -20.5702 -0.288424 -3.12656 15.617 14.7518 2.3474 25.2324 -0.0 -0.0 0.0 0.0 0.0 
3710.73 762.978 -620.205 -18.5624 43.3978 9.40659 6.01267 0.363722 0.693382 6.01288 0.318865 0.71512 6.01659 0.240881 0.745014 6.01599 0.355516 0.697625 -5.5756 12.6224 4.72846 -5.47686 19.808 7.06577 -0.0 0.0 -0.0 5.58403 12.0862 10.8403 -40.3874 -40.5995 50.8867 0.609756 -16.8074 0.0900818 61.8735 -1.94353 -7.27802 0.579619 0.978139 4.27615 -0.0 0.0 -0.0 10.5919 3.27077 -21.038 -36.5518 22.7374 -55.0849 0.563973 15.6092 -0.0773017 33.5951 0.0586827 4.23029 0.734917 5.98386 -2.42094 0.0 0.0 0.0 18.0768 16.5401 0.525835 -8.04154 0.246617 1.20848 37.7337 -27.8702 -5.54999 40.1645 -0.0 -0.0 -0.0 0.0 -0.0 29.7633 -13.4176 14.4235 -20.5276 -0.288993 -3.12004 15.6165 14.7693 2.34762 25.1859 -0.0 -0.0 0.0 0.0 0.0 
3704.84 764.882 -614.964 -18.6424 43.827 9.58896 6.04921 0.346848 0.673077 6.04941 0.303316 0.693782 6.05282 0.228149 0.721998 6.05226 0.339309 0.676908 -5.55769 12.6965 4.55882 -5.46044 20.0682 6.90613 -0.0 0.0 -0.0 5.69538 11.6472 11.0395 -39.855 -40.7979 50.3951 0.623992 -17.1769 0.0942421 61.8537 -1.94171 -7.27625 0.591447 0.893777 4.32056 -0.0 0.0 -0.0 10.4171 3.38352 -20.6695 -36.8054 22.6512 -54.9951 0.555668 15.3903 -0.0750821 33.6787 0.0619195 4.24047 0.73214 5.92676 -2.4263 0.0 0.0 0.0 18.056 16.5398 0.490012 -8.08602 0.247506 1.21525 37.7496 -27.9965 -5.55953 40.1649 -0.0 -0.0 -0.0 0.0 -0.0 30.1297 -13.278 14.8533 -20.4819 -0.289598 -3.11306 15.4576 14.7671 2.32542 25.0787 -0.0 -0.0 0.0 0.0 0.0 
3708.5 765.305 -610.386 -18.7914 44.8085 10.3242 6.07459 0.328153 0.623147 6.07476 0.287837 0.642765 6.07777 0.218448 0.669534 6.07728 0.321444 0.626634 -5.33419 12.8213 4.39884 -5.22957 20.3762 6.73416 -0.0 0.0 -0.0 5.74841 11.3516 11.1366 -39.532 -40.9395 50.0221 0.634065 -17.4375 0.0972387 61.8344 -1.93994 -7.27452 0.605995 0.717509 4.34545 -0.0 0.0 -0.0 10.4205 3.05184 -20.6654 -36.957 22.6645 -55.5918 0.553756 15.3399 -0.0745756 33.7377 0.0642166 4.24766 0.731871 5.88615 -2.44164 0.0 0.0 0.0 18.4057 16.6132 1.08789 -8.054 0.246867 1.21038 37.778 -28.0884 -5.56819 40.1653 -0.0 -0.0 -0.0 0.0 -0.0 30.4824 -13.2233 14.9997 -21.0961 -0.281 -3.20691 15.2506 14.7629 2.29641 24.9668 -0.0 -0.0 0.0 0.0 0.0 
3709.99 769.438 -605.556 -19.5399 45.5094 10.903 6.20647 0.321519 0.65369 6.20667 0.279273 0.672823 6.20969 0.208369 0.698044 6.20915 0.315995 0.656378 -5.29128 12.9111 4.30688 -5.18515 20.6032 6.65089 -0.0 0.0 -0.0 5.98722 10.9217 11.561 -38.837 -41.2266 49.6239 0.646443 -17.7567 0.100981 61.8276 -1.93931 -7.27392 0.618361 0.558735 4.36295 -0.0 0.0 -0.0 10.361 2.99667 -20.537 -37.1064 22.6271 -55.6546 0.551523 15.2809 -0.0739859 33.7668 0.0653483 4.2512 0.732462 5.86035 -2.45651 0.0 0.0 0.0 18.6606 16.7466 1.51451 -8.01184 0.24602 1.20397 37.8161 -28.1032 -5.57297 40.1653 -0.0 -0.0 -0.0 0.0 -0.0 30.7418 -13.2235 14.9605 -21.4751 -0.275192 -3.26478 15.1397 14.7987 2.28146 24.8966 -0.0 -0.0 0.0 0.0 0.0 
